<svg xmlns="http://www.w3.org/2000/svg" viewBox="0 0 125.28 47.52">
    <title>kickstarter_logo</title>
    <polygon points="47.59 31.92 24.26 46.92 0.93 31.92 24.26 16.92 47.59 31.92" fill="#fff" stroke="#1b75bc" stroke-miterlimit="10" />
    <polygon points="47.59 23.76 24.26 38.76 0.93 23.76 24.26 8.76 47.59 23.76" fill="#fff" />
    <polyline points="46.33 22.95 47.59 23.76 46.33 24.57" fill="none" stroke="#1b75bc" stroke-miterlimit="10" />
    <line x1="44.02" y1="26.06" x2="26.68" y2="37.2" fill="none" stroke="#1b75bc" stroke-miterlimit="10" stroke-dasharray="2.75 2.75" />
    <polyline points="25.52 37.95 24.26 38.76 23 37.95" fill="none" stroke="#1b75bc" stroke-miterlimit="10" />
    <line x1="20.69" y1="36.46" x2="3.34" y2="25.31" fill="none" stroke="#1b75bc" stroke-miterlimit="10" stroke-dasharray="2.75 2.75" />
    <polyline points="2.19 24.57 0.93 23.76 2.19 22.95" fill="none" stroke="#1b75bc" stroke-miterlimit="10" />
    <line x1="4.5" y1="21.46" x2="21.84" y2="10.31" fill="none" stroke="#1b75bc" stroke-miterlimit="10" stroke-dasharray="2.75 2.75" />
    <polyline points="23 9.57 24.26 8.76 25.52 9.57" fill="none" stroke="#1b75bc" stroke-miterlimit="10" />
    <line x1="27.83" y1="11.06" x2="45.18" y2="22.2" fill="none" stroke="#1b75bc" stroke-miterlimit="10" stroke-dasharray="2.75 2.75" />
    <polygon points="47.59 15.59 24.26 30.59 0.93 15.59 24.26 0.59 47.59 15.59" fill="#fff" />
    <polyline points="46.33 14.78 47.59 15.59 46.33 16.41" fill="none" stroke="#1b75bc" stroke-miterlimit="10" />
    <line x1="44.02" y1="17.89" x2="26.68" y2="29.04" fill="none" stroke="#1b75bc" stroke-miterlimit="10" stroke-dasharray="2.75 2.75" />
    <polyline points="25.52 29.78 24.26 30.59 23 29.78" fill="none" stroke="#1b75bc" stroke-miterlimit="10" />
    <line x1="20.69" y1="28.3" x2="3.34" y2="17.15" fill="none" stroke="#1b75bc" stroke-miterlimit="10" stroke-dasharray="2.75 2.75" />
    <polyline points="2.19 16.41 0.93 15.59 2.19 14.78" fill="none" stroke="#1b75bc" stroke-miterlimit="10" />
    <line x1="4.5" y1="13.3" x2="21.84" y2="2.15" fill="none" stroke="#1b75bc" stroke-miterlimit="10" stroke-dasharray="2.75 2.75" />
    <polyline points="23 1.41 24.26 0.59 25.52 1.41" fill="none" stroke="#1b75bc" stroke-miterlimit="10" />
    <line x1="27.83" y1="2.89" x2="45.18" y2="14.04" fill="none" stroke="#1b75bc" stroke-miterlimit="10" stroke-dasharray="2.75 2.75" />
    <path d="M61.51,16.73h1l2.31,4.54.69,1.49h0c0-.71-.12-1.53-.12-2.28V16.73h.88V24h-1L63,19.42l-.69-1.5h0c0,.74.12,1.51.12,2.26V24h-.88Z" transform="translate(-4.1 -4.74)" fill="#262262" />
    <path d="M67.73,20.31c0-2.33,1.15-3.71,2.77-3.71s2.78,1.38,2.78,3.71-1.15,3.77-2.78,3.77S67.73,22.68,67.73,20.31Zm4.59,0c0-1.82-.73-2.89-1.82-2.89s-1.81,1.07-1.81,2.89.73,3,1.81,3S72.32,22.16,72.32,20.31Z" transform="translate(-4.1 -4.74)" fill="#262262" />
    <path d="M74.76,16.73h1.78c2.17,0,3.35,1.29,3.35,3.58S78.71,24,76.59,24H74.76Zm1.72,6.46c1.64,0,2.45-1.05,2.45-2.88s-.81-2.82-2.45-2.82h-.8v5.7Z" transform="translate(-4.1 -4.74)" fill="#262262" />
    <path d="M81.66,16.73h4.46v.79H82.58v2.25h3v.78h-3v2.62h3.65V24H81.66Z" transform="translate(-4.1 -4.74)" fill="#262262" />
    <path d="M87.88,22.88l.59-.56a1.87,1.87,0,0,0,1.55.95c1,0,1.48-.52,1.48-1.71V17.5h-3v-.78h4v4.92A2.17,2.17,0,0,1,90,24.08,2.51,2.51,0,0,1,87.88,22.88Z" transform="translate(-4.1 -4.74)" fill="#262262" />
    <path d="M94.34,23l.55-.64a3,3,0,0,0,2.11.89c1,0,1.56-.47,1.56-1.13s-.56-1-1.28-1.3l-1-.46a2.07,2.07,0,0,1-1.55-1.86,2.11,2.11,0,0,1,2.37-1.92,3.18,3.18,0,0,1,2.22.89l-.49.6A2.51,2.51,0,0,0,97,17.42c-.83,0-1.39.39-1.39,1s.67.95,1.28,1.19l1,.45c.89.35,1.59.86,1.59,1.93s-1,2-2.55,2A3.66,3.66,0,0,1,94.34,23Z" transform="translate(-4.1 -4.74)" fill="#262262" />
    <path d="M109.57,16.73h1.06L113.06,24h-1l-1.24-4c-.25-.81-.5-1.6-.72-2.44h0c-.23.84-.46,1.63-.72,2.44l-1.26,4h-1ZM108.43,21h3.31v.75h-3.31Z" transform="translate(-4.1 -4.74)" fill="#262262" />
    <path d="M114.52,16.73h2.18c1.6,0,2.68.54,2.68,2.13s-1.09,2.23-2.68,2.23h-1.25V24h-.93Zm2.07,3.61c1.26,0,1.86-.46,1.86-1.48s-.62-1.38-1.86-1.38h-1.14v2.86Z" transform="translate(-4.1 -4.74)" fill="#262262" />
    <path d="M121.05,23.17h1.79V17.52h-1.79v-.79h4.51v.79h-1.8v5.65h1.8V24h-4.51Z" transform="translate(-4.1 -4.74)" fill="#262262" />
    <path d="M58.37,29.94h.94v3.6h0l3-3.6h1.06l-4.11,4.91v2.3h-.94Zm2.05,3.19L61,32.4l2.7,4.75h-1Z" transform="translate(-4.1 -4.74)" fill="#262262" />
    <path d="M65,36.37h1.79V30.72H65v-.78h4.51v.78H67.67v5.65h1.79v.78H65Z" transform="translate(-4.1 -4.74)" fill="#262262" />
    <path d="M71.22,33.54c0-2.32,1.35-3.74,3.23-3.74a2.71,2.71,0,0,1,2,.88l-.53.59a1.9,1.9,0,0,0-1.45-.65c-1.37,0-2.28,1.11-2.28,2.9s.91,2.95,2.28,2.95a2.1,2.1,0,0,0,1.62-.79l.53.56a2.79,2.79,0,0,1-2.24,1C72.58,37.28,71.22,35.9,71.22,33.54Z" transform="translate(-4.1 -4.74)" fill="#262262" />
    <path d="M78.17,29.94h.93v3.6h0l3-3.6h1.06L79.1,34.85v2.3h-.93Zm2,3.19.56-.73,2.7,4.75h-1Z" transform="translate(-4.1 -4.74)" fill="#262262" />
    <path d="M84.44,36.22l.55-.64a3,3,0,0,0,2.11.89c1,0,1.56-.47,1.56-1.13s-.56-1-1.28-1.3l-1-.46a2.06,2.06,0,0,1-1.55-1.86,2.11,2.11,0,0,1,2.37-1.92,3.18,3.18,0,0,1,2.22.89l-.49.6a2.51,2.51,0,0,0-1.77-.67c-.83,0-1.39.39-1.39,1s.67.95,1.28,1.19l1,.45c.9.35,1.6.86,1.6,1.93s-1,2.05-2.55,2.05A3.66,3.66,0,0,1,84.44,36.22Z" transform="translate(-4.1 -4.74)" fill="#262262" />
    <path d="M93.14,30.72H90.75v-.78h5.7v.78H94.06v6.43h-.92Z" transform="translate(-4.1 -4.74)" fill="#262262" />
    <path d="M99.67,29.94h1.06l2.43,7.21h-1l-1.24-4c-.26-.81-.5-1.6-.72-2.44h0c-.23.84-.46,1.63-.72,2.44l-1.26,4h-1Zm-1.14,4.27h3.31V35H98.53Z" transform="translate(-4.1 -4.74)" fill="#262262" />
    <path d="M104.59,29.94h2.26c1.46,0,2.53.52,2.53,2s-1.07,2.13-2.53,2.13h-1.32v3h-.94Zm2.12,3.42c1.13,0,1.74-.47,1.74-1.39s-.61-1.29-1.74-1.29h-1.18v2.68Zm.67,0,2.2,3.78h-1l-1.88-3.3Z" transform="translate(-4.1 -4.74)" fill="#262262" />
    <path d="M112.94,30.72h-2.39v-.78h5.7v.78h-2.39v6.43h-.92Z" transform="translate(-4.1 -4.74)" fill="#262262" />
    <path d="M118,29.94h4.47v.78h-3.54V33h3v.78h-3v2.62h3.65v.78H118Z" transform="translate(-4.1 -4.74)" fill="#262262" />
    <path d="M124.39,29.94h2.25c1.47,0,2.53.52,2.53,2s-1.06,2.13-2.53,2.13h-1.32v3h-.93Zm2.12,3.42c1.12,0,1.74-.47,1.74-1.39s-.62-1.29-1.74-1.29h-1.19v2.68Zm.67,0,2.2,3.78h-1l-1.88-3.3Z" transform="translate(-4.1 -4.74)" fill="#262262" />
</svg>
