<svg xmlns="http://www.w3.org/2000/svg" data-name="Layer 1" viewBox="0 0 295.44 157.87">
  <path d="M14.66 0v104.27l46.06-51.93h2.1L28.68 90.87l45 66.13H59l-38.74-57-5.65 6.5V157H0V0zM134.95 157.87q-22.1 0-35.9-12.56T85.2 106.58q0-26.17 14.34-40.57T136 51.5q22.1 0 35.9 12.57t13.83 38.74q0 26.2-14.34 40.63t-36.45 14.44zm1.36-104.7q-15.9 0-26.37 14.14T99.46 106.7q0 25.23 9.63 37.37t25.53 12.14q15.9 0 26.38-14.14t10.48-39.36q0-25.23-9.63-37.37T136.3 53.18zM288.95 157q-14.24 0-19.47-5.44-4.82-4.6-4.82-8v-4.4Q254.4 157.8 231.8 157.8q-26.4 0-29.95-23.87a30.92 30.92 0 0 1-.42-5.13 22.44 22.44 0 0 1 .84-5.76q.83-3.14 4.82-6.9 8-7.55 35-9.22 6.7-.63 12.34-.63t10.26.4V72q-.42-.2 0-2a7.9 7.9 0 0 0-.73-4.6 29 29 0 0 0-3-5.56q-1.9-2.72-6.7-4.7a33.4 33.4 0 0 0-12.56-2A70.1 70.1 0 0 0 223.5 56q-10.35 2.83-15.17 5.55l-.84-1.47a89.76 89.76 0 0 1 37.9-8.58q21.55 0 28.47 7.75 5.44 6.07 5.44 12.77v70.14q0 6.08 2.42 9.32t4.92 3.45l2.3.42h6.5V157zm-53.8-.84a29.9 29.9 0 0 0 20-7.64q8.9-7.64 9.52-14.76v-25.3Q259 108 253.25 108a103.5 103.5 0 0 0-11.4.63q-15.92 1.9-20.74 7.12t-4.8 14.45a37.5 37.5 0 0 0 .2 3.77q1.88 22.23 18.63 22.23z"
    fill="#000000" />
</svg>