<?xml version="1.0" encoding="iso-8859-1"?>
<!-- Generator: Adobe Illustrator 19.0.0, SVG Export Plug-In . SVG Version: 6.00 Build 0)  -->
<svg version="1.1" id="Capa_1" xmlns="http://www.w3.org/2000/svg" xmlns:xlink="http://www.w3.org/1999/xlink" x="0px" y="0px"
	 viewBox="0 0 480.144 480.144" style="enable-background:new 0 0 480.144 480.144;" xml:space="preserve">
<g>
	<g>
		<rect x="232.072" y="400.144" width="16" height="16"/>
	</g>
</g>
<g>
	<g>
		<path d="M472.072,416.144h-8v-288c0-17.673-14.327-32-32-32h-74.4c-13.188-64.949-76.531-106.909-141.48-93.72
			c-47.224,9.589-84.131,46.497-93.72,93.72h-74.4c-17.673,0-32,14.327-32,32v288h-8c-4.418,0-8,3.582-8,8v24
			c0,17.673,14.327,32,32,32h416c17.673,0,32-14.327,32-32v-24C480.072,419.726,476.49,416.144,472.072,416.144z M164.963,48.14
			c19.62-20.469,46.755-32.028,75.109-31.996c57.371-0.064,103.932,46.392,103.996,103.763
			c0.032,28.354-11.528,55.488-31.996,75.109v-42.872c-0.029-23.673-17.313-43.79-40.712-47.384
			c5.601-6.986,8.672-15.662,8.712-24.616c0-22.091-17.909-40-40-40c-22.091,0-40,17.909-40,40c0.04,8.954,3.111,17.63,8.712,24.616
			c-23.399,3.594-40.683,23.711-40.712,47.384v42.872C126.655,155.316,125.263,89.557,164.963,48.14z M264.072,160.144v61.096
			c-15.766,3.872-32.234,3.872-48,0v-61.096h-16v56c-5.571-2.353-10.925-5.19-16-8.48v-55.52c0-17.673,14.327-32,32-32h48
			c17.673,0,32,14.327,32,32v55.496c-5.074,3.298-10.428,6.144-16,8.504v-56H264.072z M216.072,80.144c0-13.255,10.745-24,24-24
			s24,10.745,24,24s-10.745,24-24,24S216.072,93.399,216.072,80.144z M168.072,215.92v0.224h0.304
			c42.441,32.001,100.951,32.001,143.392,0h0.304v-0.224c23.445-17.564,39.662-43.09,45.6-71.776h58.4v224h-352v-224h58.4
			C128.41,172.83,144.627,198.356,168.072,215.92z M32.072,128.144c0-8.837,7.163-16,16-16h72.408c-0.176,2.656-0.408,5.296-0.408,8
			s0.232,5.344,0.408,8H56.072c-4.418,0-8,3.582-8,8v240c0,4.418,3.582,8,8,8h368c4.418,0,8-3.582,8-8v-240c0-4.418-3.582-8-8-8
			h-64.408c0.176-2.656,0.408-5.296,0.408-8s-0.232-5.344-0.408-8h72.408c8.837,0,16,7.163,16,16v288h-136
			c-2.12-0.002-4.155,0.839-5.656,2.336l-13.656,13.664H187.384l-13.656-13.664c-1.501-1.497-3.536-2.338-5.656-2.336h-136V128.144z
			 M464.072,448.144c0,8.837-7.163,16-16,16h-416c-8.837,0-16-7.163-16-16v-16H164.76l13.656,13.656
			c1.5,1.5,3.534,2.344,5.656,2.344h112c2.122,0,4.156-0.844,5.656-2.344l13.656-13.656h148.688V448.144z"/>
	</g>
</g>
<g>
	<g>
		<path d="M368.072,256.144h-256c-4.418,0-8,3.582-8,8v64c0,4.418,3.582,8,8,8h256c4.418,0,8-3.582,8-8v-64
			C376.072,259.726,372.49,256.144,368.072,256.144z M360.072,320.144h-240v-48h240V320.144z"/>
	</g>
</g>
<g>
	<g>
		<rect x="232.072" y="288.144" width="16" height="16"/>
	</g>
</g>
<g>
	<g>
		<rect x="264.072" y="288.144" width="16" height="16"/>
	</g>
</g>
<g>
	<g>
		<rect x="296.072" y="288.144" width="16" height="16"/>
	</g>
</g>
<g>
	<g>
		<rect x="328.072" y="288.144" width="16" height="16"/>
	</g>
</g>
<g>
	<g>
		<rect x="136.072" y="288.144" width="16" height="16"/>
	</g>
</g>
<g>
	<g>
		<rect x="168.072" y="288.144" width="16" height="16"/>
	</g>
</g>
<g>
	<g>
		<rect x="200.072" y="288.144" width="16" height="16"/>
	</g>
</g>
<g>
</g>
<g>
</g>
<g>
</g>
<g>
</g>
<g>
</g>
<g>
</g>
<g>
</g>
<g>
</g>
<g>
</g>
<g>
</g>
<g>
</g>
<g>
</g>
<g>
</g>
<g>
</g>
<g>
</g>
</svg>
